<svg width="49" height="48" viewBox="0 0 49 48" fill="none" xmlns="http://www.w3.org/2000/svg">
<rect x="0.00244141" y="0.000366211" width="48" height="48" rx="16.16" fill="url(#paint0_linear)"/>
<path d="M29.9225 18.0858L15.7495 23.3807C14.7823 23.757 14.7879 24.2798 15.5721 24.5129L19.2108 25.6126L27.6299 20.4665C28.0279 20.2318 28.3917 20.358 28.0927 20.6151L21.2716 26.5791H21.27L21.2716 26.5798L21.0206 30.2135C21.3883 30.2135 21.5506 30.0501 21.7568 29.8573L23.5243 28.1922L27.2006 30.823C27.8785 31.1846 28.3653 30.9988 28.534 30.215L30.9473 19.1964C31.1943 18.2369 30.5692 17.8024 29.9225 18.0858Z" fill="white"/>
<defs>
<linearGradient id="paint0_linear" x1="24.0024" y1="0.000366211" x2="24.0024" y2="48.0004" gradientUnits="userSpaceOnUse">
<stop stop-color="#6E94F5"/>
<stop offset="1" stop-color="#3B66D5"/>
</linearGradient>
</defs>
</svg>
